<svg width="78" height="164" viewBox="0 0 78 164" fill="none" xmlns="http://www.w3.org/2000/svg">
<path d="M14.672 160.575V163.597H46.4489L47.6455 160.575H14.672Z" fill="#0D1C53" stroke="black" stroke-width="2"/>
<path d="M17.513 19.2303C14.9894 21.548 13.7283 23.2021 12.4965 25.4795C8.62489 32.7972 7.08351 36.9072 6.24542 44.2597C6.12012 51.3627 6.59305 55.1165 9.57046 60.9088C12.292 65.1845 12.5812 67.6616 23.1366 71.431C30.8805 74.5133 36.1653 75.0391 48.008 72.8962C53.1131 70.7833 55.8576 68.9449 60.1111 62.1075C58.4862 49.1531 57.6857 40.8795 55.19 35.8686C53.7227 31.5055 54.4309 28.7707 46.5449 19.3526C38.9796 13.4156 34.1769 11.1452 20.6096 16.5556C19.3952 17.5602 18.3796 18.4343 17.513 19.2303Z" fill="#FCC7A8"/>
<path d="M48.008 160.803C45.4753 143.343 45.6228 132.169 46.5449 111.655C49.3696 113.195 51.1655 113.73 55.7221 112.588C53.8757 131.403 53.3396 141.956 54.791 160.803L55.7221 164H46.5449L48.008 160.803Z" fill="#FCC7A8"/>
<path d="M11.1665 160.803C10.2574 139.817 9.80444 128.141 10.6345 109.924H13.6935C15.035 130.023 14.093 141.083 12.3635 160.803H14.2255V164H10.1025L11.1665 160.803Z" fill="#FCC7A8"/>
<path d="M49.87 49.1878C58.2488 52.784 55.7218 60.5092 47.2099 60.5092M25.9297 62.1075C16.2828 65.4517 13.8345 63.298 10.6345 58.6445M12.4965 43.061C10.189 44.2096 8.77269 45.0589 9.57046 47.1899C10.3682 49.321 13.056 48.4632 15.2895 47.1899M27.9247 20.5514C32.2645 19.7522 34.0741 17.6224 38.8308 23.8812M19.6786 19.7522C18.6976 18.7139 17.9437 18.7863 16.7525 19.7522M12.4965 25.4795C14.1514 22.42 15.8589 20.4854 20.6096 16.5556C34.1769 11.1452 38.9796 13.4156 46.5449 19.3526C54.4309 28.7707 53.7227 31.5055 55.19 35.8686C57.6857 40.8795 58.4862 49.1531 60.1111 62.1075C55.8576 68.9449 53.1131 70.7833 48.008 72.8962C36.1653 75.0391 30.8805 74.5133 23.1366 71.431C12.5812 67.6616 12.292 65.1845 9.57046 60.9088C6.59305 55.1165 6.12012 51.3627 6.24542 44.2597C7.08351 36.9072 8.62489 32.7972 12.4965 25.4795ZM46.5449 111.655C45.6228 132.169 45.4752 143.343 48.008 160.803L46.5449 164H55.7221L54.791 160.803C53.3396 141.956 53.8757 131.403 55.7221 112.588C51.1655 113.73 49.3696 113.195 46.5449 111.655ZM10.6345 109.924C9.80444 128.141 10.2574 139.817 11.1665 160.803L10.1025 164H14.2255V160.803H12.3635C14.093 141.083 15.035 130.023 13.6935 109.924H10.6345Z" stroke="black" stroke-width="2"/>
<path d="M25.9231 4.46299C20.0109 8.28935 18.1318 10.7371 20.4796 16.3049C34.9863 11.1104 42.7228 10.8906 53.6718 29.8765C57.428 39.4618 59.1624 45.5138 59.912 60.6121C60.8688 62.296 61.6029 62.8138 63.6295 62.2088C68.3336 58.896 70.7459 56.2627 74.1183 48.3711C77.1569 40.2479 78.6887 35.6092 74.1183 23.7559C67.0244 14.0576 66.7578 7.93383 43.9797 1.13662L43.7728 1.12826C36.8433 0.847966 32.8947 0.688249 25.9231 4.46299Z" fill="#76573B" stroke="black" stroke-width="2"/>
<path d="M18.8597 70.1088C30.143 74.8676 36.695 75.25 48.6846 72.9081C54.662 82.453 54.7538 85.8659 55.8426 92.5033C57.2928 103.258 57.502 106.012 57.6984 109.966C53.5122 113.67 50.6049 112.996 45.3708 111.565L44.5067 96.2136C46.2606 128.828 45.6068 142.598 47.4916 159.953C37.4956 162.077 31.2926 161.273 20.5829 161.02H12.7621C14.4172 141.567 14.7021 130.358 14.3528 109.966C11.9298 110.492 10.8235 110.587 9.84592 109.966C9.28796 106.092 9.33377 102.801 9.84592 95.5692C11.5327 85.4118 13.0583 79.7849 18.8597 70.1088Z" fill="#F4F482"/>
<path d="M14.3528 109.966C14.7021 130.358 14.4172 141.567 12.7621 161.02H20.5829C31.2926 161.273 37.4956 162.077 47.4916 159.953C45.498 141.595 46.3445 127.25 44.1778 90.3705L45.3708 111.565C50.6049 112.996 53.5122 113.67 57.6984 109.966C57.502 106.012 57.2928 103.258 55.8426 92.5033C54.7538 85.8659 54.662 82.453 48.6846 72.9081C36.695 75.25 30.143 74.8676 18.8597 70.1088C13.0583 79.7848 11.5327 85.4118 9.84592 95.5692C9.33377 102.801 9.28796 106.092 9.84592 109.966C10.8235 110.587 11.9298 110.492 14.3528 109.966ZM14.3528 109.966L15.9435 88.371" stroke="black" stroke-width="2"/>
<path d="M13.0085 39.7425C14.6786 35.6273 15.9077 33.5106 13.0085 26.4316C12.5039 25.8367 12.3348 25.5338 9.95488 24.4349L9.93324 24.4334C8.3756 24.321 7.49476 24.2575 5.97184 25.2336C3.01814 27.5752 2.02225 29.2829 1.45773 33.087C0.73836 37.3558 0.473916 39.6859 3.71479 42.1384C6.86956 44.216 8.89163 43.8069 13.0085 39.7425Z" fill="#FCFAFC"/>
<path d="M34.1186 26.4316C29.4067 25.0731 26.9278 25.1896 22.7006 26.4316C19.4535 30.1484 18.0604 32.4176 18.8503 37.8789C19.6371 42.8266 21.128 44.8166 26.4181 46.3979C30.1573 47.3009 32.331 47.3633 36.774 44.2682C37.9472 42.1145 38.4404 40.2654 38.8983 35.3499L38.9053 35.266C39.1541 32.2924 39.2957 30.5996 34.1186 26.4316Z" fill="#FCFAFC"/>
<path d="M13.0085 39.7425C14.6786 35.6273 15.9077 33.5106 13.0085 26.4316C12.5039 25.8367 12.3348 25.5338 9.95488 24.4349L9.93324 24.4334C8.3756 24.321 7.49476 24.2575 5.97184 25.2336C3.01814 27.5752 2.02225 29.2829 1.45773 33.087C0.73836 37.3558 0.473916 39.6859 3.71479 42.1384C6.86956 44.216 8.89163 43.8069 13.0085 39.7425Z" stroke="black" stroke-width="2"/>
<path d="M34.1186 26.4316C29.4067 25.0731 26.9278 25.1896 22.7006 26.4316C19.4535 30.1484 18.0604 32.4176 18.8503 37.8789C19.6371 42.8266 21.128 44.8166 26.4181 46.3979C30.1573 47.3009 32.331 47.3633 36.774 44.2682C37.9472 42.1145 38.4404 40.2654 38.8983 35.3499L38.9053 35.266C39.1541 32.2924 39.2957 30.5996 34.1186 26.4316Z" stroke="black" stroke-width="2"/>
<path d="M21.0542 32.3118V31.5184L22.5132 32.3118V32.7085L21.85 33.2373L20.6562 32.7085L21.0542 32.3118Z" fill="black"/>
<path d="M3.4127 29.7995L3.81063 29.0062H4.47385L5.00442 29.7995L4.47385 30.4607L4.20856 30.1962L3.4127 29.7995Z" fill="black"/>
<path d="M21.0542 32.3118V31.5184L22.5132 32.3118V32.7085L21.85 33.2373L20.6562 32.7085L21.0542 32.3118Z" stroke="black" stroke-width="2"/>
<path d="M3.4127 29.7995L3.81063 29.0062H4.47385L5.00442 29.7995L4.47385 30.4607L4.20856 30.1962L3.4127 29.7995Z" stroke="black" stroke-width="2"/>
</svg>
