<svg width="132" height="245" viewBox="0 0 132 245" fill="none" xmlns="http://www.w3.org/2000/svg">
<path d="M31.7937 84.7414C29.6139 87.5787 28.7586 89.0852 28.5992 91.4583L36.015 88.6122C34.2397 85.4658 33.7294 83.6616 33.1628 80.4153C31.6058 75.2874 31.362 71.5842 31.2232 64.5907C30.9011 55.7682 31.2335 53.5673 33.1628 43.9846C41.4538 29.3418 47.058 25.9543 62.8261 32.0307C69.0322 35.4137 68.509 37.6369 70.4701 41.3661C71.8328 45.6412 71.9962 47.3018 72.1814 50.1322C72.8926 58.4906 73.2048 63.1769 72.1814 71.5353H73.0941C75.6223 69.2318 76.2481 68.2529 77.3154 66.5261C75.0899 65.4827 74.238 64.2409 73.0941 61.403V53.8892L76.5168 51.2707L81.879 45.9199C79.251 46.1642 76.7157 45.0184 72.1814 42.9599C75.9755 36.6191 77.137 32.8376 78.7986 25.9969C74.1232 26.4974 71.4995 27.3399 66.8192 29.1846C67.137 19.7341 67.4064 14.4256 62.9401 5.50461C59.5142 10.7674 57.5922 14.3565 54.1552 23.6061C47.1779 14.2388 42.6013 9.51353 32.0219 3C33.8789 12.9435 34.5183 18.4709 33.2769 28.0461C28.6563 29.2631 23.2399 27.9555 14.1098 25.9969C16.7228 32.2 19.4803 36.2994 25.1765 43.9846C19.0696 46.3125 18.3417 46.037 4.75447 52.7507C9.4731 55.8901 14.2499 57.9795 24.492 61.9722C21.2408 64.6461 16.9951 65.9643 12.2844 69.4861C16.5703 73.0623 19.8782 74.7087 26.5456 77.3414C24.2193 79.2704 22.8481 80.2268 21.2975 83.603C23.7896 84.6593 27.0828 84.5298 31.7937 84.7414Z" fill="#B2DCEF" stroke="black" stroke-width="2"/>
<path d="M48.6837 98.2284C41.4033 96.5773 38.3123 94.6185 35.3469 88.4664C33.0452 82.3505 31.2608 79.1659 31.1744 71.9579C24.4215 67.6681 23.3528 65.5271 31.1744 62.6582C30.5271 55.2795 31.0179 51.1947 32.8175 43.97C37.3388 34.9932 43.4296 28.3352 50.0634 29.7811C61.2467 30.1126 66.7359 31.4858 70.5285 43.0619C72.8881 56.763 73.9083 64.4556 70.5285 78.3639C70.5478 81.2365 70.3005 82.7403 69.2638 85.1746C68.004 92.3227 66.6086 96.0741 54.6623 99.25C53.1819 99.1067 51.9109 98.895 48.6837 98.2284Z" fill="#DDD8D2" stroke="black" stroke-width="2"/>
<path d="M112.078 118.427C110.751 123.076 110.928 125.457 111.159 129.725L114.491 134.975C115.492 134.669 116.048 134.453 116.903 132.806C117.665 133.008 118.46 132.984 120.235 132.806C121.543 132.707 122.241 131.992 123.452 130.067C123.696 127.344 123.767 125.537 122.992 122.421L124.715 121.166C125.537 119.874 124.955 119.815 124.141 119.568C125.918 117.417 127.514 116.872 130.689 116.258C131.146 115.529 131.311 115.131 129.655 114.66C127.824 114.078 126.188 114.588 121.384 118.084C123.848 114.847 125.475 113.075 129.425 110.096C130.351 108.37 129.736 108.24 127.817 108.612C123.852 111.073 121.942 113.223 118.627 117.285C121.04 113.398 122.629 111.211 127.587 107.242C128.141 106.445 128.431 106.002 127.587 105.531C121.741 107.463 119.331 109.444 116.329 114.318C116.609 111.745 116.567 110.351 120.924 106.786C121.783 106.304 122.121 105.753 122.762 104.846C122.508 103.836 122.185 103.465 120.235 104.275C115.178 108.537 113.134 111.461 112.078 118.427Z" fill="#DCD7D4"/>
<path d="M94.3863 177.771C93.2642 179.465 92.4932 180.158 90.2506 179.826C88.6997 181.823 88.3776 183.011 89.2166 185.303C92.9273 185.987 94.9867 186.05 98.637 185.532C100.63 184.301 101.379 183.582 101.739 182.222C102.302 179.573 102.728 178.271 104.036 176.858C105.96 174.527 107.604 174.506 110.585 174.576C111.729 173.636 111.871 173.175 110.01 172.636L108.517 172.065C109.387 171.406 109.961 171.328 111.044 171.38C112.723 170.865 113.24 170.53 112.767 169.783C112.767 169.783 111.822 168.909 110.929 168.87C111.626 168.195 112.13 167.881 113.342 167.5C113.82 166.991 113.953 166.74 112.997 166.587C110.111 166.549 109.012 166.838 107.483 167.614C103.307 169.717 101.776 171.235 99.1213 173.867L98.9816 174.005C101.134 171.844 101.613 171.053 105.185 168.071C107.555 166.799 108.833 166.107 110.24 165.218C110.794 163.965 110.44 163.792 109.206 163.962C102.594 166.425 101.041 168.437 98.4072 172.065C96.3835 174.911 95.7053 175.885 94.3863 177.771Z" fill="#DCD7D4"/>
<path d="M122.992 122.421L124.715 121.166C125.537 119.874 124.955 119.815 124.141 119.568C125.918 117.417 127.514 116.872 130.689 116.258C131.146 115.529 131.311 115.131 129.655 114.66C127.824 114.078 126.188 114.588 121.384 118.084C123.848 114.847 125.475 113.075 129.425 110.096C130.351 108.37 129.736 108.24 127.817 108.612C123.852 111.073 121.942 113.223 118.627 117.285C121.04 113.398 122.629 111.211 127.587 107.242C128.141 106.445 128.431 106.002 127.587 105.531C121.741 107.463 119.331 109.444 116.329 114.318C116.609 111.745 116.567 110.351 120.924 106.786C121.783 106.304 122.121 105.753 122.762 104.846C122.508 103.836 122.185 103.465 120.235 104.275C115.178 108.537 113.134 111.461 112.078 118.427C110.751 123.076 110.928 125.457 111.159 129.725L114.491 134.975C115.492 134.669 116.048 134.453 116.903 132.806C117.665 133.008 118.46 132.984 120.235 132.806C121.543 132.707 122.241 131.992 123.452 130.067C123.696 127.344 123.767 125.537 122.992 122.421ZM122.992 122.421L118.627 126.073M110.929 168.87C111.626 168.195 112.13 167.881 113.342 167.5C113.82 166.991 113.953 166.74 112.997 166.587C110.111 166.549 109.012 166.838 107.483 167.614C103.234 169.754 101.723 171.288 98.9816 174.005C101.134 171.844 101.613 171.053 105.185 168.071C107.555 166.799 108.833 166.107 110.24 165.218C110.794 163.965 110.44 163.792 109.206 163.962C102.594 166.425 101.041 168.437 98.4072 172.065C96.3835 174.911 95.7053 175.885 94.3863 177.771C93.2642 179.465 92.4932 180.158 90.2506 179.826C88.6997 181.823 88.3776 183.011 89.2166 185.303C92.9273 185.987 94.9867 186.05 98.637 185.532C100.63 184.301 101.379 183.582 101.739 182.222C102.302 179.573 102.728 178.271 104.036 176.858C105.96 174.527 107.604 174.506 110.585 174.576C111.729 173.636 111.871 173.175 110.01 172.636L108.517 172.065C109.387 171.406 109.961 171.328 111.044 171.38C112.723 170.865 113.24 170.53 112.767 169.783C112.767 169.783 111.822 168.909 110.929 168.87ZM110.929 168.87C105.066 169.442 102.549 170.975 99.3263 175.717M100.475 177.771C102.119 174.101 103.161 172.167 108.287 172.065M115.41 122.763L119.316 120.709L124.026 119.682" stroke="black" stroke-width="2"/>
<path d="M117.687 130.869C119.346 130.938 119.862 130.46 119.982 128.6C119.656 127.522 119.759 126.758 119.982 125.375" stroke="black" stroke-width="2"/>
<path d="M24.1653 118.5L21.7502 122.921L24.1653 125.641L24.4946 134.142L19.4448 138.45L23.2871 171.208" stroke="black" stroke-width="2"/>
<path d="M28.5895 197.792H23.5735H23.1175L23.5735 192.75H28.5895V197.792H36.5694V193.198H39.5333L40.1033 197.792H36.5694H28.5895Z" fill="#453723"/>
<path d="M23.5735 197.792H28.5895V192.75H23.5735L23.1175 197.792H36.5694M36.5694 197.792V193.198H39.5333L40.1033 197.792H36.5694Z" stroke="black" stroke-width="2"/>
<path d="M28.6264 197.463V192.75L36.8897 193.298V197.792L28.6264 197.463Z" fill="#EBD955" stroke="black" stroke-width="2"/>
<path d="M108.162 139.597C106.545 136.525 106.346 134.604 107.066 130.875C112.575 133.877 112.766 136.684 113.096 141.695C112.114 142.185 111.041 141.736 108.162 139.597Z" fill="#CCE4CA" stroke="black" stroke-width="2"/>
<path d="M83.0939 180.78C81.322 183.959 81.6276 185.667 82.4621 188.698C87.5451 186.865 89.2345 185.023 87.0381 178.078C85.2298 178.755 84.3577 179.341 83.0939 180.78Z" fill="#D2E2CD" stroke="black" stroke-width="2"/>
<path d="M48.7293 105.001C44.4104 104.636 42.0367 104.045 37.9837 101.542C33.6561 124.418 31.4574 137.224 28.2669 160.003C25.3915 174.14 24.5993 181.278 24.4945 192.75L39.1268 192.058C39.4523 181.15 40.016 174.454 42.6706 160.003C47.1624 139.704 49.3218 128.123 48.7293 105.001Z" fill="#AEE5E2" stroke="black" stroke-width="2"/>
<path d="M49.2846 98.8C44.341 97.443 41.7306 96.1309 37.6256 91.9166C35.5295 94.6563 35.0348 96.2559 34.5943 99.15C38.5519 103 41.534 103.895 47.3026 104.75L49.2846 98.8Z" fill="#DDD8D2" stroke="black" stroke-width="2"/>
<path d="M42.3986 65.5535C45.2788 68.5945 47.5992 69.1628 53.1365 67.941M67.0391 68.2821C70.6481 68.0284 72.2123 67.5206 72.2385 64.4167" stroke="black" stroke-width="2"/>
<path d="M59.2645 68.0082C60.1639 71.8706 61.1896 73.816 64.817 74.597C67.0073 73.1404 66.9199 72.2966 66.3208 70.7824C65.7779 69.1524 65.0783 66.9085 64.0073 63.5M44.4578 80.2612C42.626 81.366 42.1758 82.3667 42.4913 84.885C45.1462 86.3451 46.277 86.1263 48.1595 85.3473M45.2676 83.2666C53.5995 80.3734 59.4223 80.3995 70.4852 81.4171M70.4852 78.2961C72.8613 79.4096 73.8246 80.2923 74.5339 82.5731C73.064 84.9764 72.056 85.2081 70.1381 84.885" stroke="black" stroke-width="2"/>
<path d="M44.1175 43.7205C41.6684 43.5114 41.0617 42.9486 41.7388 40.9195C43.1431 39.2745 43.7498 39.1276 44.7972 39.0149C48.1753 37.5829 50.4401 38.8172 53.7456 40.3593C57.0814 42.9043 58.1485 43.732 59.4091 44.7288C62.3292 46.6047 62.1645 46.7926 64.9594 44.7288C67.0149 42.5317 68.3547 41.5853 71.4158 40.9195C73.8813 41.4862 74.1239 42.359 72.8883 44.7288C72.4361 45.0747 71.8233 45.2704 69.7167 45.6252C68.4126 46.8595 67.3859 47.6899 64.9594 49.4345C62.2978 50.656 60.7803 50.3755 58.0498 48.9863C55.2163 46.2805 53.5041 45.0312 50.2342 43.2723C47.3337 41.6965 46.089 42.1189 44.1175 43.7205Z" fill="#B6E0F4"/>
<path d="M50.2342 35.5417C50.8644 35.5771 51.2721 35.6391 52.1598 35.8778C54.58 36.432 56.8553 38.1904 60.6551 40.9195C63.1797 41.6323 64.2428 41.4423 65.4124 39.9112M41.7388 40.9195C41.0617 42.9486 41.6684 43.5114 44.1175 43.7205C46.089 42.1189 47.3337 41.6965 50.2342 43.2723C53.5041 45.0312 55.2163 46.2805 58.0498 48.9863C60.7803 50.3755 62.2978 50.656 64.9594 49.4345C67.3859 47.6899 68.4126 46.8595 69.7167 45.6252C71.8233 45.2704 72.4361 45.0747 72.8883 44.7288C74.1239 42.359 73.8813 41.4862 71.4158 40.9195C68.3547 41.5853 67.0149 42.5317 64.9594 44.7288C62.1645 46.7926 62.3292 46.6047 59.4091 44.7288C58.1485 43.732 57.0814 42.9043 53.7456 40.3593C50.4401 38.8172 48.1753 37.5829 44.7972 39.0149C43.7498 39.1276 43.1431 39.2745 41.7388 40.9195Z" stroke="black" stroke-width="2"/>
<path d="M50.3894 64.8635L50.4404 64.8751C53.7208 64.8002 55.3901 64.1617 58.0291 61.8842C60.3719 57.8315 61.2122 55.5068 58.0291 50.8408C55.3139 48.47 53.5444 47.4682 48.0619 48.7702C44.8922 49.7602 43.5207 51.1531 42.3986 56.3625C43.3992 63.2865 45.9205 63.8553 50.3894 64.8635Z" fill="white"/>
<path d="M66.977 48.08C64.0433 49.6439 62.6807 50.8924 62.4464 56.0174C62.6446 60.4231 63.7284 62.3702 68.1096 64.5299C71.2077 64.7574 72.7597 64.3016 74.9055 61.5391C77.2172 58.187 77.6273 55.9782 75.132 50.8408C73.0631 47.9677 71.1102 47.6323 66.977 48.08Z" fill="white"/>
<path d="M50.3894 64.8635L50.4404 64.8751C53.7208 64.8002 55.3901 64.1617 58.0291 61.8842C60.3719 57.8315 61.2122 55.5068 58.0291 50.8408C55.3139 48.47 53.5444 47.4682 48.0619 48.7702C44.8922 49.7602 43.5207 51.1531 42.3986 56.3625C43.3992 63.2865 45.9205 63.8553 50.3894 64.8635Z" stroke="black" stroke-width="2"/>
<path d="M66.977 48.08C64.0433 49.6439 62.6807 50.8924 62.4464 56.0174C62.6446 60.4231 63.7284 62.3702 68.1096 64.5299C71.2077 64.7574 72.7597 64.3016 74.9055 61.5391C77.2172 58.187 77.6273 55.9782 75.132 50.8408C73.0631 47.9677 71.1102 47.6323 66.977 48.08Z" stroke="black" stroke-width="2"/>
<path d="M55.8229 60.5209L56.165 60.4063V60.2917H56.2791H56.5072L56.6212 60.4063L56.5072 61.0938V61.6667V61.8959L56.051 62.0104L55.5947 61.8959H55.3666L55.2526 61.5521V61.2084V60.8646L55.4807 60.6354L55.8229 60.5209Z" fill="black"/>
<path d="M72.1328 61.3229L72.0188 61.6667H71.9047L72.0188 62.125H72.361H72.9312H73.5015L73.6156 61.6667L73.5015 61.2084L73.3875 60.75L72.9312 60.8646H72.475L72.1328 61.3229Z" fill="black"/>
<path d="M56.2791 60.2917L56.165 60.4063M56.165 60.4063L55.8229 60.5209L55.4807 60.6354L55.2526 60.8646V61.2084V61.5521L55.3666 61.8959H55.5947L56.051 62.0104L56.5072 61.8959V61.6667V61.0938L56.6212 60.4063L56.5072 60.2917H56.165V60.4063ZM72.0188 61.6667L72.1328 61.3229L72.475 60.8646H72.9312L73.3875 60.75L73.5015 61.2084L73.6156 61.6667L73.5015 62.125H72.9312H72.361H72.0188L71.9047 61.6667H72.0188Z" stroke="black" stroke-width="2"/>
<path d="M23.3129 197.792H40.0018C40.2308 216.492 41.4516 226.522 43.3167 244.542H31.7716C31.5716 231.054 31.5095 223.496 30.3999 209.938C26.5683 209.247 24.5665 209.254 21.2553 209.938C20.9815 224.207 20.5953 231.361 19.933 243.628L19.8836 244.542H14.8541C18.5069 231.515 20.4497 224.167 21.2553 209.938L22.7413 197.792H23.3129Z" fill="#756951"/>
<path d="M21.2553 209.938C24.5665 209.254 26.5683 209.247 30.3999 209.938C31.5095 223.496 31.5716 231.054 31.7716 244.542H43.3167C41.4516 226.522 40.2308 216.492 40.0018 197.792H23.3129H22.7413L21.2553 209.938ZM21.2553 209.938C20.9748 224.558 20.5762 231.708 19.8836 244.542H14.8541C18.5069 231.515 20.4497 224.167 21.2553 209.938Z" stroke="black" stroke-width="2"/>
<path d="M111.312 129.958C109.591 130.715 108.715 131.459 107.127 132.692C106.253 135.679 106.769 137.323 109.276 140.209C112.696 138.559 113.777 137.637 114.932 135.995C112.92 134.165 111.993 132.962 111.312 129.958Z" fill="#AEE5E2"/>
<path d="M90.6097 179.844L86.8764 178.819C83.983 180.439 83.3085 181.991 83.2563 185.539C85.5153 186.226 86.8727 186.528 89.5915 186.792C88.8032 182.839 89.1049 181.4 90.6097 179.844Z" fill="#AEE5E2"/>
<path d="M111.312 129.958C109.591 130.715 108.715 131.459 107.127 132.692C106.253 135.679 106.769 137.323 109.276 140.209C112.696 138.559 113.777 137.637 114.932 135.995C112.92 134.165 111.993 132.962 111.312 129.958Z" stroke="black" stroke-width="2"/>
<path d="M90.6097 179.844L86.8764 178.819C83.983 180.439 83.3085 181.991 83.2563 185.539C85.5153 186.226 86.8727 186.528 89.5915 186.792C88.8032 182.839 89.1049 181.4 90.6097 179.844Z" stroke="black" stroke-width="2"/>
<path d="M47.348 163.493C60.6362 170.387 70.6876 173.874 87.035 178.084C82.6579 181.235 80.412 182.422 82.4113 188.726C68.3 184.804 58.4656 181.609 47.8321 176.016C47.1742 193.339 45.9621 228.313 48.4035 244.316L43.4889 245L41.4316 214.449C39.6478 198.952 38.2552 187.885 40.7007 171.977C37.6028 170.103 34.3596 167.994 30.8645 165.585C27.3244 162.59 28.6607 162.246 28.5163 159.047C24.1112 181.534 22.8204 193.99 21.7729 216.045C19.9024 229.857 18.4467 236.123 15.0296 244.316H2C4.86446 224.225 5.1214 212.787 4.28589 192.22C4.51023 171.505 8.66076 158.415 11.6007 136.704C13.7523 124.576 15.5647 119.048 19.1442 109.915C21.5159 102.452 23.6081 99.2326 28.5163 94.9811C36.2156 92.8497 37.7161 95.1029 38.0027 102.049C37.3946 113.867 37.3288 120.343 38.0027 131.46C38.9999 145.287 39.5354 152.851 39.1457 159.047C42.0495 160.678 44.7601 162.15 47.348 163.493Z" fill="#FCFAFB"/>
<path d="M52.6324 136.248L52.1753 150.041C53.3115 155.603 54.9017 158.482 58.2329 163.493C61.0552 167.17 62.5759 168.306 65.2048 169.079C86.4707 160.659 96.4216 154.502 112.637 142.403C106.947 139.729 106.189 137.119 107.037 131.46C92.704 141.17 84.1804 146.023 68.1765 153.689L67.8336 152.777C62.1066 139.448 60.2072 132.718 58.2329 106.153C57.8078 103.278 57.1711 101.862 54.6897 99.9969C52.5187 99.0825 51.2956 98.7708 49.0893 99.0849C49.0862 102.023 49.0837 103.71 49.0893 106.153C49.2057 119.262 44.7018 149.776 42.4571 160.884M52.6324 136.248L55.3755 114.93M52.6324 136.248C51.7988 137.952 51.4157 138.993 51.0323 141.15C49.4291 150.705 48.1541 156.21 47.348 163.493M47.8321 176.016C47.1742 193.339 45.9621 228.313 48.4035 244.316L43.4889 245C42.6854 233.069 42.235 226.38 41.4316 214.449C39.6478 198.952 38.2552 187.885 40.7007 171.977M87.035 178.084C67.504 173.055 56.9601 169.056 39.1457 159.047C39.5354 152.851 38.9999 145.287 38.0027 131.46C37.3288 120.343 37.3946 113.867 38.0027 102.049C37.7161 95.1029 36.2156 92.8497 28.5163 94.9811C23.6081 99.2326 21.5159 102.452 19.1442 109.915C15.5647 119.048 13.7523 124.576 11.6007 136.704C8.66076 158.415 4.51023 171.505 4.28589 192.22C5.1214 212.787 4.86446 224.225 2 244.316H15.0296C18.4467 236.123 19.9024 229.857 21.7729 216.045C22.8204 193.99 24.1112 181.534 28.5163 159.047C28.6607 162.246 27.3244 162.59 30.8645 165.585C49.7881 178.63 61.3246 182.864 82.4113 188.726C80.412 182.422 82.6579 181.235 87.035 178.084Z" stroke="black" stroke-width="2"/>
</svg>
